<svg width="34" height="33" viewBox="0 0 34 33" fill="none" xmlns="http://www.w3.org/2000/svg">
<path id="git-logo" d="M16.8095 0.880981C7.74478 0.880981 0.392853 8.09976 0.392853 17.0033C0.392853 24.1267 5.09623 30.1699 11.6205 32.3021C12.4399 32.4512 12.7054 31.9514 12.7054 31.5269V28.5254C8.13878 29.5008 7.18798 26.623 7.18798 26.623C6.44103 24.7595 5.36437 24.2638 5.36437 24.2638C3.87455 23.2628 5.47791 23.2843 5.47791 23.2843C7.12642 23.3972 7.99377 24.9463 7.99377 24.9463C9.45759 27.4103 11.8339 26.6982 12.771 26.2858C12.9174 25.2445 13.3429 24.5325 13.8135 24.1308C10.1676 23.721 6.33432 22.3385 6.33432 16.1623C6.33432 14.4009 6.97594 12.9633 8.02523 11.8348C7.8556 11.4277 7.29332 9.78724 8.1853 7.56773C8.1853 7.56773 9.5643 7.13511 12.7012 9.22027C14.0105 8.86289 15.4141 8.6842 16.8095 8.67748C18.2049 8.6842 19.6099 8.86289 20.9219 9.22027C24.0561 7.13511 25.4324 7.56773 25.4324 7.56773C26.3257 9.78858 25.7634 11.429 25.5938 11.8348C26.6472 12.9633 27.2834 14.4023 27.2834 16.1623C27.2834 22.3546 23.4432 23.7183 19.7878 24.1173C20.376 24.6171 20.9137 25.5979 20.9137 27.1026V31.5269C20.9137 31.9555 21.1764 32.4593 22.0095 32.3008C28.5283 30.1659 33.2262 24.124 33.2262 17.0033C33.2262 8.09976 25.8756 0.880981 16.8095 0.880981Z" fill="#3F4287" fill-opacity="0.5"/>
</svg>
