<svg width="34" height="33" viewBox="0 0 34 33" fill="none" xmlns="http://www.w3.org/2000/svg">
<path id="inta-logo" d="M16.8095 3.05435C21.1928 3.05435 21.7126 3.07077 23.4446 3.15011C27.8935 3.35259 29.9716 5.4635 30.1741 9.87958C30.2534 11.6102 30.2684 12.13 30.2684 16.5133C30.2684 20.8979 30.252 21.4164 30.1741 23.147C29.9702 27.559 27.8976 29.674 23.4446 29.8764C21.7126 29.9558 21.1955 29.9722 16.8095 29.9722C12.4263 29.9722 11.9064 29.9558 10.1758 29.8764C5.71596 29.6726 3.64882 27.5521 3.44635 23.1456C3.36701 21.415 3.35059 20.8965 3.35059 16.5119C3.35059 12.1287 3.36837 11.6102 3.44635 9.87821C3.65019 5.4635 5.7228 3.35122 10.1758 3.14875C11.9078 3.07077 12.4263 3.05435 16.8095 3.05435ZM16.8095 0.0952454C12.351 0.0952454 11.7929 0.114398 10.0417 0.193745C4.07976 0.467356 0.766332 3.77531 0.492721 9.74277C0.412006 11.4953 0.392853 12.0534 0.392853 16.5119C0.392853 20.9704 0.412006 21.5299 0.491353 23.281C0.764964 29.243 4.07292 32.5565 10.0404 32.8301C11.7929 32.9094 12.351 32.9286 16.8095 32.9286C21.268 32.9286 21.8275 32.9094 23.5787 32.8301C29.5352 32.5565 32.8568 29.2485 33.1263 23.281C33.207 21.5299 33.2262 20.9704 33.2262 16.5119C33.2262 12.0534 33.207 11.4953 33.1277 9.74414C32.8595 3.78763 29.5475 0.468725 23.58 0.195113C21.8275 0.114398 21.268 0.0952454 16.8095 0.0952454ZM16.8095 8.08195C12.154 8.08195 8.37956 11.8564 8.37956 16.5119C8.37956 21.1674 12.154 24.9432 16.8095 24.9432C21.465 24.9432 25.2395 21.1688 25.2395 16.5119C25.2395 11.8564 21.465 8.08195 16.8095 8.08195ZM16.8095 21.9841C13.7875 21.9841 11.3373 19.5353 11.3373 16.5119C11.3373 13.4899 13.7875 11.0397 16.8095 11.0397C19.8316 11.0397 22.2817 13.4899 22.2817 16.5119C22.2817 19.5353 19.8316 21.9841 16.8095 21.9841ZM25.5733 5.77952C24.4843 5.77952 23.6019 6.66191 23.6019 7.74952C23.6019 8.83712 24.4843 9.71952 25.5733 9.71952C26.6609 9.71952 27.5419 8.83712 27.5419 7.74952C27.5419 6.66191 26.6609 5.77952 25.5733 5.77952Z" fill="#3F4287" fill-opacity="0.5"/>
</svg>
